<svg xmlns="http://www.w3.org/2000/svg" xmlns:xlink="http://www.w3.org/1999/xlink" width="312" zoomAndPan="magnify" viewBox="0 0 234 35.25" height="47" preserveAspectRatio="xMidYMid meet" version="1.0"><defs><g/><clipPath id="aa2e198856"><path d="M 2.46875 0 L 231.5625 0 L 231.5625 33.78125 L 2.46875 33.78125 Z M 2.46875 0 " clip-rule="nonzero"/></clipPath><clipPath id="8f3d624916"><path d="M 14.214844 0 L 219.773438 0 C 222.886719 0 225.875 1.238281 228.078125 3.441406 C 230.28125 5.644531 231.519531 8.632812 231.519531 11.746094 L 231.519531 22.207031 C 231.519531 25.324219 230.28125 28.308594 228.078125 30.511719 C 225.875 32.714844 222.886719 33.953125 219.773438 33.953125 L 14.214844 33.953125 C 11.101562 33.953125 8.113281 32.714844 5.910156 30.511719 C 3.707031 28.308594 2.46875 25.324219 2.46875 22.207031 L 2.46875 11.746094 C 2.46875 8.632812 3.707031 5.644531 5.910156 3.441406 C 8.113281 1.238281 11.101562 0 14.214844 0 Z M 14.214844 0 " clip-rule="nonzero"/></clipPath><clipPath id="8ee1006d6c"><path d="M 201.203125 3.214844 L 228.375 3.214844 L 228.375 30.386719 L 201.203125 30.386719 Z M 201.203125 3.214844 " clip-rule="nonzero"/></clipPath></defs><g clip-path="url(#aa2e198856)"><g clip-path="url(#8f3d624916)"><path stroke-linecap="butt" transform="matrix(0.734375, 0, 0, 0.734375, 2.47041, 0.000000979167)" fill="none" stroke-linejoin="miter" d="M 15.992421 -0.00000133333 L 295.902007 -0.00000133333 C 300.141369 -0.00000133333 304.210518 1.686169 307.210518 4.686169 C 310.210518 7.686169 311.896689 11.755318 311.896689 15.99468 L 311.896689 30.239362 C 311.896689 34.484043 310.210518 38.547873 307.210518 41.547873 C 304.210518 44.547873 300.141369 46.234043 295.902007 46.234043 L 15.992421 46.234043 C 11.753059 46.234043 7.68391 44.547873 4.68391 41.547873 C 1.68391 38.547873 -0.00226043 34.484043 -0.00226043 30.239362 L -0.00226043 15.99468 C -0.00226043 11.755318 1.68391 7.686169 4.68391 4.686169 C 7.68391 1.686169 11.753059 -0.00000133333 15.992421 -0.00000133333 Z M 15.992421 -0.00000133333 " stroke="#ffffff" stroke-width="4" stroke-opacity="1" stroke-miterlimit="4"/></g></g><g clip-path="url(#8ee1006d6c)"><path fill="#ffffff" d="M 227.125 16.976562 C 227.125 23.878906 221.515625 29.492188 214.613281 29.492188 C 207.710938 29.492188 202.097656 23.878906 202.097656 16.976562 C 202.097656 10.078125 207.710938 4.464844 214.613281 4.464844 C 221.515625 4.464844 227.125 10.078125 227.125 16.976562 Z M 201.203125 16.976562 C 201.203125 24.371094 207.21875 30.386719 214.613281 30.386719 C 222.007812 30.386719 228.019531 24.371094 228.019531 16.976562 C 228.019531 9.585938 222.007812 3.570312 214.613281 3.570312 C 207.21875 3.570312 201.203125 9.585938 201.203125 16.976562 " fill-opacity="1" fill-rule="nonzero"/></g><path fill="#ffffff" d="M 206.703125 19.339844 C 206.527344 19.507812 206.523438 19.792969 206.695312 19.96875 C 206.863281 20.148438 207.148438 20.152344 207.324219 19.980469 L 214.550781 12.980469 C 214.585938 12.945312 214.640625 12.945312 214.675781 12.980469 L 221.898438 19.980469 C 222.078125 20.152344 222.359375 20.148438 222.53125 19.96875 C 222.617188 19.882812 222.65625 19.769531 222.65625 19.660156 C 222.65625 19.542969 222.613281 19.425781 222.519531 19.339844 L 215.296875 12.339844 C 214.914062 11.96875 214.3125 11.96875 213.929688 12.339844 L 206.703125 19.339844 " fill-opacity="1" fill-rule="nonzero"/><g fill="#ffffff" fill-opacity="1"><g transform="translate(35.855408, 19.920022)"><g><path d="M 0.78125 -10.6875 L 4.59375 -10.6875 C 5.625 -10.6875 6.460938 -10.410156 7.109375 -9.859375 C 7.753906 -9.316406 8.078125 -8.535156 8.078125 -7.515625 C 8.078125 -6.722656 7.878906 -6.0625 7.484375 -5.53125 C 7.097656 -5 6.566406 -4.628906 5.890625 -4.421875 L 9.578125 0 L 6.46875 0 L 3.21875 -4.21875 L 3.21875 0 L 0.78125 0 Z M 3.21875 -5.953125 L 3.5 -5.953125 C 3.71875 -5.953125 3.90625 -5.953125 4.0625 -5.953125 C 4.21875 -5.960938 4.394531 -5.992188 4.59375 -6.046875 C 4.789062 -6.097656 4.953125 -6.171875 5.078125 -6.265625 C 5.203125 -6.359375 5.304688 -6.492188 5.390625 -6.671875 C 5.472656 -6.859375 5.515625 -7.082031 5.515625 -7.34375 C 5.515625 -7.601562 5.472656 -7.820312 5.390625 -8 C 5.304688 -8.1875 5.203125 -8.328125 5.078125 -8.421875 C 4.953125 -8.515625 4.789062 -8.585938 4.59375 -8.640625 C 4.394531 -8.691406 4.21875 -8.722656 4.0625 -8.734375 C 3.90625 -8.742188 3.71875 -8.75 3.5 -8.75 L 3.21875 -8.75 Z M 3.21875 -5.953125 "/></g></g></g><g fill="#ffffff" fill-opacity="1"><g transform="translate(45.123896, 19.920022)"><g><path d="M 7.5 -3 L 2.6875 -3 C 2.6875 -2.539062 2.835938 -2.195312 3.140625 -1.96875 C 3.441406 -1.738281 3.769531 -1.625 4.125 -1.625 C 4.488281 -1.625 4.78125 -1.675781 5 -1.78125 C 5.21875 -1.882812 5.460938 -2.082031 5.734375 -2.375 L 7.390625 -1.546875 C 6.703125 -0.390625 5.554688 0.1875 3.953125 0.1875 C 2.953125 0.1875 2.09375 -0.148438 1.375 -0.828125 C 0.65625 -1.515625 0.296875 -2.34375 0.296875 -3.3125 C 0.296875 -4.28125 0.65625 -5.109375 1.375 -5.796875 C 2.09375 -6.492188 2.953125 -6.84375 3.953125 -6.84375 C 5.003906 -6.84375 5.859375 -6.535156 6.515625 -5.921875 C 7.179688 -5.316406 7.515625 -4.445312 7.515625 -3.3125 C 7.515625 -3.15625 7.507812 -3.050781 7.5 -3 Z M 2.75 -4.28125 L 5.265625 -4.28125 C 5.210938 -4.625 5.078125 -4.882812 4.859375 -5.0625 C 4.640625 -5.25 4.359375 -5.34375 4.015625 -5.34375 C 3.640625 -5.34375 3.335938 -5.242188 3.109375 -5.046875 C 2.878906 -4.847656 2.757812 -4.59375 2.75 -4.28125 Z M 2.75 -4.28125 "/></g></g></g><g fill="#ffffff" fill-opacity="1"><g transform="translate(52.929618, 19.920022)"><g><path d="M 3.671875 -6.84375 C 4.046875 -6.84375 4.414062 -6.796875 4.78125 -6.703125 C 5.15625 -6.617188 5.4375 -6.535156 5.625 -6.453125 L 5.890625 -6.328125 L 5.140625 -4.8125 C 4.617188 -5.09375 4.128906 -5.234375 3.671875 -5.234375 C 3.410156 -5.234375 3.222656 -5.203125 3.109375 -5.140625 C 3.003906 -5.085938 2.953125 -4.984375 2.953125 -4.828125 C 2.953125 -4.796875 2.957031 -4.757812 2.96875 -4.71875 C 2.976562 -4.6875 2.992188 -4.65625 3.015625 -4.625 C 3.046875 -4.59375 3.070312 -4.566406 3.09375 -4.546875 C 3.113281 -4.523438 3.148438 -4.5 3.203125 -4.46875 C 3.253906 -4.445312 3.296875 -4.429688 3.328125 -4.421875 C 3.359375 -4.410156 3.40625 -4.390625 3.46875 -4.359375 C 3.539062 -4.335938 3.59375 -4.316406 3.625 -4.296875 C 3.65625 -4.285156 3.710938 -4.265625 3.796875 -4.234375 C 3.878906 -4.210938 3.941406 -4.203125 3.984375 -4.203125 C 4.253906 -4.117188 4.488281 -4.03125 4.6875 -3.9375 C 4.882812 -3.84375 5.09375 -3.710938 5.3125 -3.546875 C 5.53125 -3.378906 5.703125 -3.171875 5.828125 -2.921875 C 5.953125 -2.671875 6.015625 -2.390625 6.015625 -2.078125 C 6.015625 -0.566406 4.960938 0.1875 2.859375 0.1875 C 2.390625 0.1875 1.941406 0.113281 1.515625 -0.03125 C 1.085938 -0.175781 0.773438 -0.320312 0.578125 -0.46875 L 0.296875 -0.703125 L 1.234375 -2.265625 C 1.296875 -2.203125 1.382812 -2.128906 1.5 -2.046875 C 1.613281 -1.972656 1.816406 -1.863281 2.109375 -1.71875 C 2.398438 -1.570312 2.65625 -1.5 2.875 -1.5 C 3.351562 -1.5 3.59375 -1.660156 3.59375 -1.984375 C 3.59375 -2.128906 3.53125 -2.242188 3.40625 -2.328125 C 3.28125 -2.410156 3.070312 -2.503906 2.78125 -2.609375 C 2.5 -2.710938 2.273438 -2.804688 2.109375 -2.890625 C 1.691406 -3.109375 1.363281 -3.351562 1.125 -3.625 C 0.882812 -3.894531 0.765625 -4.253906 0.765625 -4.703125 C 0.765625 -5.378906 1.023438 -5.90625 1.546875 -6.28125 C 2.066406 -6.65625 2.773438 -6.84375 3.671875 -6.84375 Z M 3.671875 -6.84375 "/></g></g></g><g fill="#ffffff" fill-opacity="1"><g transform="translate(59.298462, 19.920022)"><g><path d="M 2.9375 -6.640625 L 2.9375 -3.484375 C 2.9375 -2.828125 3.035156 -2.359375 3.234375 -2.078125 C 3.429688 -1.804688 3.769531 -1.671875 4.25 -1.671875 C 4.726562 -1.671875 5.066406 -1.804688 5.265625 -2.078125 C 5.460938 -2.359375 5.5625 -2.828125 5.5625 -3.484375 L 5.5625 -6.640625 L 7.84375 -6.640625 L 7.84375 -2.921875 C 7.84375 -1.816406 7.554688 -1.019531 6.984375 -0.53125 C 6.410156 -0.0507812 5.5 0.1875 4.25 0.1875 C 3 0.1875 2.082031 -0.0507812 1.5 -0.53125 C 0.925781 -1.019531 0.640625 -1.816406 0.640625 -2.921875 L 0.640625 -6.640625 Z M 2.9375 -6.640625 "/></g></g></g><g fill="#ffffff" fill-opacity="1"><g transform="translate(67.790258, 19.920022)"><g><path d="M 0.78125 0 L 0.78125 -6.640625 L 3.0625 -6.640625 L 3.0625 -5.953125 L 3.09375 -5.953125 C 3.6875 -6.546875 4.320312 -6.84375 5 -6.84375 C 5.476562 -6.84375 5.929688 -6.742188 6.359375 -6.546875 C 6.785156 -6.347656 7.101562 -6.039062 7.3125 -5.625 C 7.988281 -6.4375 8.722656 -6.84375 9.515625 -6.84375 C 10.222656 -6.84375 10.832031 -6.640625 11.34375 -6.234375 C 11.851562 -5.835938 12.109375 -5.21875 12.109375 -4.375 L 12.109375 0 L 9.8125 0 L 9.8125 -3.75 C 9.8125 -4.101562 9.710938 -4.398438 9.515625 -4.640625 C 9.328125 -4.878906 9.039062 -5 8.65625 -5 C 8.3125 -5 8.050781 -4.894531 7.875 -4.6875 C 7.695312 -4.488281 7.601562 -4.25 7.59375 -3.96875 L 7.59375 0 L 5.296875 0 L 5.296875 -3.75 C 5.296875 -4.101562 5.195312 -4.398438 5 -4.640625 C 4.8125 -4.878906 4.519531 -5 4.125 -5 C 3.769531 -5 3.503906 -4.890625 3.328125 -4.671875 C 3.148438 -4.453125 3.0625 -4.191406 3.0625 -3.890625 L 3.0625 0 Z M 0.78125 0 "/></g></g></g><g fill="#ffffff" fill-opacity="1"><g transform="translate(80.540901, 19.920022)"><g><path d="M 1.40625 -0.796875 C 0.664062 -1.453125 0.296875 -2.289062 0.296875 -3.3125 C 0.296875 -4.34375 0.679688 -5.1875 1.453125 -5.84375 C 2.222656 -6.507812 3.171875 -6.84375 4.296875 -6.84375 C 5.410156 -6.84375 6.347656 -6.507812 7.109375 -5.84375 C 7.878906 -5.175781 8.265625 -4.332031 8.265625 -3.3125 C 8.265625 -2.289062 7.890625 -1.453125 7.140625 -0.796875 C 6.390625 -0.140625 5.441406 0.1875 4.296875 0.1875 C 3.109375 0.1875 2.144531 -0.140625 1.40625 -0.796875 Z M 3.171875 -4.4375 C 2.878906 -4.144531 2.734375 -3.769531 2.734375 -3.3125 C 2.734375 -2.851562 2.875 -2.476562 3.15625 -2.1875 C 3.445312 -1.90625 3.820312 -1.765625 4.28125 -1.765625 C 4.738281 -1.765625 5.109375 -1.910156 5.390625 -2.203125 C 5.679688 -2.492188 5.828125 -2.863281 5.828125 -3.3125 C 5.828125 -3.769531 5.675781 -4.144531 5.375 -4.4375 C 5.082031 -4.738281 4.71875 -4.890625 4.28125 -4.890625 C 3.84375 -4.890625 3.472656 -4.738281 3.171875 -4.4375 Z M 3.171875 -4.4375 "/></g></g></g><g fill="#ffffff" fill-opacity="1"><g transform="translate(89.097428, 19.920022)"><g/></g></g><g fill="#ffffff" fill-opacity="1"><g transform="translate(92.631359, 19.920022)"><g><path d="M 0.78125 -10.6875 L 4.671875 -10.6875 C 5.765625 -10.6875 6.644531 -10.40625 7.3125 -9.84375 C 7.988281 -9.28125 8.328125 -8.460938 8.328125 -7.390625 C 8.328125 -6.328125 7.984375 -5.488281 7.296875 -4.875 C 6.617188 -4.269531 5.742188 -3.96875 4.671875 -3.96875 L 3.21875 -3.96875 L 3.21875 0 L 0.78125 0 Z M 3.21875 -5.90625 L 3.90625 -5.90625 C 4.445312 -5.90625 4.890625 -6.015625 5.234375 -6.234375 C 5.585938 -6.453125 5.765625 -6.8125 5.765625 -7.3125 C 5.765625 -7.820312 5.585938 -8.1875 5.234375 -8.40625 C 4.890625 -8.632812 4.445312 -8.75 3.90625 -8.75 L 3.21875 -8.75 Z M 3.21875 -5.90625 "/></g></g></g><g fill="#ffffff" fill-opacity="1"><g transform="translate(101.252605, 19.920022)"><g><path d="M 0.78125 0 L 0.78125 -6.640625 L 3.0625 -6.640625 L 3.0625 -5.6875 L 3.09375 -5.6875 C 3.113281 -5.71875 3.140625 -5.757812 3.171875 -5.8125 C 3.210938 -5.863281 3.296875 -5.953125 3.421875 -6.078125 C 3.554688 -6.210938 3.695312 -6.332031 3.84375 -6.4375 C 3.988281 -6.539062 4.175781 -6.632812 4.40625 -6.71875 C 4.644531 -6.800781 4.882812 -6.84375 5.125 -6.84375 C 5.375 -6.84375 5.617188 -6.804688 5.859375 -6.734375 C 6.109375 -6.660156 6.289062 -6.59375 6.40625 -6.53125 L 6.578125 -6.421875 L 5.625 -4.484375 C 5.332031 -4.722656 4.9375 -4.84375 4.4375 -4.84375 C 4.15625 -4.84375 3.914062 -4.78125 3.71875 -4.65625 C 3.519531 -4.539062 3.378906 -4.394531 3.296875 -4.21875 C 3.210938 -4.050781 3.148438 -3.90625 3.109375 -3.78125 C 3.078125 -3.65625 3.0625 -3.5625 3.0625 -3.5 L 3.0625 0 Z M 0.78125 0 "/></g></g></g><g fill="#ffffff" fill-opacity="1"><g transform="translate(107.699124, 19.920022)"><g><path d="M 1.40625 -0.796875 C 0.664062 -1.453125 0.296875 -2.289062 0.296875 -3.3125 C 0.296875 -4.34375 0.679688 -5.1875 1.453125 -5.84375 C 2.222656 -6.507812 3.171875 -6.84375 4.296875 -6.84375 C 5.410156 -6.84375 6.347656 -6.507812 7.109375 -5.84375 C 7.878906 -5.175781 8.265625 -4.332031 8.265625 -3.3125 C 8.265625 -2.289062 7.890625 -1.453125 7.140625 -0.796875 C 6.390625 -0.140625 5.441406 0.1875 4.296875 0.1875 C 3.109375 0.1875 2.144531 -0.140625 1.40625 -0.796875 Z M 3.171875 -4.4375 C 2.878906 -4.144531 2.734375 -3.769531 2.734375 -3.3125 C 2.734375 -2.851562 2.875 -2.476562 3.15625 -2.1875 C 3.445312 -1.90625 3.820312 -1.765625 4.28125 -1.765625 C 4.738281 -1.765625 5.109375 -1.910156 5.390625 -2.203125 C 5.679688 -2.492188 5.828125 -2.863281 5.828125 -3.3125 C 5.828125 -3.769531 5.675781 -4.144531 5.375 -4.4375 C 5.082031 -4.738281 4.71875 -4.890625 4.28125 -4.890625 C 3.84375 -4.890625 3.472656 -4.738281 3.171875 -4.4375 Z M 3.171875 -4.4375 "/></g></g></g><g fill="#ffffff" fill-opacity="1"><g transform="translate(116.255651, 19.920022)"><g><path d="M 1.171875 -6.640625 L 1.171875 -8.0625 C 1.171875 -9.050781 1.398438 -9.84375 1.859375 -10.4375 C 2.316406 -11.03125 2.953125 -11.328125 3.765625 -11.328125 C 4.109375 -11.328125 4.4375 -11.273438 4.75 -11.171875 C 5.070312 -11.078125 5.300781 -10.976562 5.4375 -10.875 L 5.65625 -10.734375 L 4.859375 -9.125 C 4.648438 -9.238281 4.421875 -9.296875 4.171875 -9.296875 C 3.890625 -9.296875 3.695312 -9.195312 3.59375 -9 C 3.5 -8.8125 3.453125 -8.472656 3.453125 -7.984375 L 3.453125 -6.640625 L 4.984375 -6.640625 L 4.984375 -4.890625 L 3.453125 -4.890625 L 3.453125 0 L 1.171875 0 L 1.171875 -4.890625 L 0.203125 -4.890625 L 0.203125 -6.640625 Z M 1.171875 -6.640625 "/></g></g></g><g fill="#ffffff" fill-opacity="1"><g transform="translate(121.109953, 19.920022)"><g><path d="M 1 -10.34375 C 1.269531 -10.613281 1.585938 -10.75 1.953125 -10.75 C 2.328125 -10.75 2.644531 -10.613281 2.90625 -10.34375 C 3.175781 -10.082031 3.3125 -9.765625 3.3125 -9.390625 C 3.3125 -9.015625 3.175781 -8.691406 2.90625 -8.421875 C 2.644531 -8.160156 2.328125 -8.03125 1.953125 -8.03125 C 1.585938 -8.03125 1.269531 -8.160156 1 -8.421875 C 0.726562 -8.691406 0.59375 -9.015625 0.59375 -9.390625 C 0.59375 -9.765625 0.726562 -10.082031 1 -10.34375 Z M 0.78125 -6.640625 L 0.78125 0 L 3.0625 0 L 3.0625 -6.640625 Z M 0.78125 -6.640625 "/></g></g></g><g fill="#ffffff" fill-opacity="1"><g transform="translate(125.019292, 19.920022)"><g><path d="M 3.671875 -6.84375 C 4.046875 -6.84375 4.414062 -6.796875 4.78125 -6.703125 C 5.15625 -6.617188 5.4375 -6.535156 5.625 -6.453125 L 5.890625 -6.328125 L 5.140625 -4.8125 C 4.617188 -5.09375 4.128906 -5.234375 3.671875 -5.234375 C 3.410156 -5.234375 3.222656 -5.203125 3.109375 -5.140625 C 3.003906 -5.085938 2.953125 -4.984375 2.953125 -4.828125 C 2.953125 -4.796875 2.957031 -4.757812 2.96875 -4.71875 C 2.976562 -4.6875 2.992188 -4.65625 3.015625 -4.625 C 3.046875 -4.59375 3.070312 -4.566406 3.09375 -4.546875 C 3.113281 -4.523438 3.148438 -4.5 3.203125 -4.46875 C 3.253906 -4.445312 3.296875 -4.429688 3.328125 -4.421875 C 3.359375 -4.410156 3.40625 -4.390625 3.46875 -4.359375 C 3.539062 -4.335938 3.59375 -4.316406 3.625 -4.296875 C 3.65625 -4.285156 3.710938 -4.265625 3.796875 -4.234375 C 3.878906 -4.210938 3.941406 -4.203125 3.984375 -4.203125 C 4.253906 -4.117188 4.488281 -4.03125 4.6875 -3.9375 C 4.882812 -3.84375 5.09375 -3.710938 5.3125 -3.546875 C 5.53125 -3.378906 5.703125 -3.171875 5.828125 -2.921875 C 5.953125 -2.671875 6.015625 -2.390625 6.015625 -2.078125 C 6.015625 -0.566406 4.960938 0.1875 2.859375 0.1875 C 2.390625 0.1875 1.941406 0.113281 1.515625 -0.03125 C 1.085938 -0.175781 0.773438 -0.320312 0.578125 -0.46875 L 0.296875 -0.703125 L 1.234375 -2.265625 C 1.296875 -2.203125 1.382812 -2.128906 1.5 -2.046875 C 1.613281 -1.972656 1.816406 -1.863281 2.109375 -1.71875 C 2.398438 -1.570312 2.65625 -1.5 2.875 -1.5 C 3.351562 -1.5 3.59375 -1.660156 3.59375 -1.984375 C 3.59375 -2.128906 3.53125 -2.242188 3.40625 -2.328125 C 3.28125 -2.410156 3.070312 -2.503906 2.78125 -2.609375 C 2.5 -2.710938 2.273438 -2.804688 2.109375 -2.890625 C 1.691406 -3.109375 1.363281 -3.351562 1.125 -3.625 C 0.882812 -3.894531 0.765625 -4.253906 0.765625 -4.703125 C 0.765625 -5.378906 1.023438 -5.90625 1.546875 -6.28125 C 2.066406 -6.65625 2.773438 -6.84375 3.671875 -6.84375 Z M 3.671875 -6.84375 "/></g></g></g><g fill="#ffffff" fill-opacity="1"><g transform="translate(131.388136, 19.920022)"><g><path d="M 3.671875 -6.84375 C 4.046875 -6.84375 4.414062 -6.796875 4.78125 -6.703125 C 5.15625 -6.617188 5.4375 -6.535156 5.625 -6.453125 L 5.890625 -6.328125 L 5.140625 -4.8125 C 4.617188 -5.09375 4.128906 -5.234375 3.671875 -5.234375 C 3.410156 -5.234375 3.222656 -5.203125 3.109375 -5.140625 C 3.003906 -5.085938 2.953125 -4.984375 2.953125 -4.828125 C 2.953125 -4.796875 2.957031 -4.757812 2.96875 -4.71875 C 2.976562 -4.6875 2.992188 -4.65625 3.015625 -4.625 C 3.046875 -4.59375 3.070312 -4.566406 3.09375 -4.546875 C 3.113281 -4.523438 3.148438 -4.5 3.203125 -4.46875 C 3.253906 -4.445312 3.296875 -4.429688 3.328125 -4.421875 C 3.359375 -4.410156 3.40625 -4.390625 3.46875 -4.359375 C 3.539062 -4.335938 3.59375 -4.316406 3.625 -4.296875 C 3.65625 -4.285156 3.710938 -4.265625 3.796875 -4.234375 C 3.878906 -4.210938 3.941406 -4.203125 3.984375 -4.203125 C 4.253906 -4.117188 4.488281 -4.03125 4.6875 -3.9375 C 4.882812 -3.84375 5.09375 -3.710938 5.3125 -3.546875 C 5.53125 -3.378906 5.703125 -3.171875 5.828125 -2.921875 C 5.953125 -2.671875 6.015625 -2.390625 6.015625 -2.078125 C 6.015625 -0.566406 4.960938 0.1875 2.859375 0.1875 C 2.390625 0.1875 1.941406 0.113281 1.515625 -0.03125 C 1.085938 -0.175781 0.773438 -0.320312 0.578125 -0.46875 L 0.296875 -0.703125 L 1.234375 -2.265625 C 1.296875 -2.203125 1.382812 -2.128906 1.5 -2.046875 C 1.613281 -1.972656 1.816406 -1.863281 2.109375 -1.71875 C 2.398438 -1.570312 2.65625 -1.5 2.875 -1.5 C 3.351562 -1.5 3.59375 -1.660156 3.59375 -1.984375 C 3.59375 -2.128906 3.53125 -2.242188 3.40625 -2.328125 C 3.28125 -2.410156 3.070312 -2.503906 2.78125 -2.609375 C 2.5 -2.710938 2.273438 -2.804688 2.109375 -2.890625 C 1.691406 -3.109375 1.363281 -3.351562 1.125 -3.625 C 0.882812 -3.894531 0.765625 -4.253906 0.765625 -4.703125 C 0.765625 -5.378906 1.023438 -5.90625 1.546875 -6.28125 C 2.066406 -6.65625 2.773438 -6.84375 3.671875 -6.84375 Z M 3.671875 -6.84375 "/></g></g></g><g fill="#ffffff" fill-opacity="1"><g transform="translate(137.75698, 19.920022)"><g><path d="M 1 -10.34375 C 1.269531 -10.613281 1.585938 -10.75 1.953125 -10.75 C 2.328125 -10.75 2.644531 -10.613281 2.90625 -10.34375 C 3.175781 -10.082031 3.3125 -9.765625 3.3125 -9.390625 C 3.3125 -9.015625 3.175781 -8.691406 2.90625 -8.421875 C 2.644531 -8.160156 2.328125 -8.03125 1.953125 -8.03125 C 1.585938 -8.03125 1.269531 -8.160156 1 -8.421875 C 0.726562 -8.691406 0.59375 -9.015625 0.59375 -9.390625 C 0.59375 -9.765625 0.726562 -10.082031 1 -10.34375 Z M 0.78125 -6.640625 L 0.78125 0 L 3.0625 0 L 3.0625 -6.640625 Z M 0.78125 -6.640625 "/></g></g></g><g fill="#ffffff" fill-opacity="1"><g transform="translate(141.666319, 19.920022)"><g><path d="M 1.40625 -0.796875 C 0.664062 -1.453125 0.296875 -2.289062 0.296875 -3.3125 C 0.296875 -4.34375 0.679688 -5.1875 1.453125 -5.84375 C 2.222656 -6.507812 3.171875 -6.84375 4.296875 -6.84375 C 5.410156 -6.84375 6.347656 -6.507812 7.109375 -5.84375 C 7.878906 -5.175781 8.265625 -4.332031 8.265625 -3.3125 C 8.265625 -2.289062 7.890625 -1.453125 7.140625 -0.796875 C 6.390625 -0.140625 5.441406 0.1875 4.296875 0.1875 C 3.109375 0.1875 2.144531 -0.140625 1.40625 -0.796875 Z M 3.171875 -4.4375 C 2.878906 -4.144531 2.734375 -3.769531 2.734375 -3.3125 C 2.734375 -2.851562 2.875 -2.476562 3.15625 -2.1875 C 3.445312 -1.90625 3.820312 -1.765625 4.28125 -1.765625 C 4.738281 -1.765625 5.109375 -1.910156 5.390625 -2.203125 C 5.679688 -2.492188 5.828125 -2.863281 5.828125 -3.3125 C 5.828125 -3.769531 5.675781 -4.144531 5.375 -4.4375 C 5.082031 -4.738281 4.71875 -4.890625 4.28125 -4.890625 C 3.84375 -4.890625 3.472656 -4.738281 3.171875 -4.4375 Z M 3.171875 -4.4375 "/></g></g></g><g fill="#ffffff" fill-opacity="1"><g transform="translate(150.222846, 19.920022)"><g><path d="M 0.78125 0 L 0.78125 -6.640625 L 3.0625 -6.640625 L 3.0625 -5.953125 L 3.09375 -5.953125 C 3.6875 -6.546875 4.320312 -6.84375 5 -6.84375 C 5.320312 -6.84375 5.644531 -6.796875 5.96875 -6.703125 C 6.300781 -6.617188 6.613281 -6.484375 6.90625 -6.296875 C 7.207031 -6.117188 7.453125 -5.863281 7.640625 -5.53125 C 7.828125 -5.195312 7.921875 -4.8125 7.921875 -4.375 L 7.921875 0 L 5.625 0 L 5.625 -3.75 C 5.625 -4.101562 5.515625 -4.40625 5.296875 -4.65625 C 5.078125 -4.914062 4.789062 -5.046875 4.4375 -5.046875 C 4.082031 -5.046875 3.765625 -4.910156 3.484375 -4.640625 C 3.203125 -4.378906 3.0625 -4.082031 3.0625 -3.75 L 3.0625 0 Z M 0.78125 0 "/></g></g></g><g fill="#ffffff" fill-opacity="1"><g transform="translate(158.779373, 19.920022)"><g><path d="M 1.21875 -0.828125 C 0.601562 -1.503906 0.296875 -2.332031 0.296875 -3.3125 C 0.296875 -4.300781 0.601562 -5.132812 1.21875 -5.8125 C 1.84375 -6.5 2.632812 -6.84375 3.59375 -6.84375 C 4.476562 -6.84375 5.207031 -6.566406 5.78125 -6.015625 L 5.78125 -6.640625 L 8.0625 -6.640625 L 8.0625 0 L 5.796875 0 L 5.796875 -0.75 L 5.78125 -0.75 C 5.207031 -0.125 4.476562 0.1875 3.59375 0.1875 C 2.632812 0.1875 1.84375 -0.148438 1.21875 -0.828125 Z M 3.171875 -4.4375 C 2.878906 -4.144531 2.734375 -3.769531 2.734375 -3.3125 C 2.734375 -2.851562 2.875 -2.476562 3.15625 -2.1875 C 3.445312 -1.90625 3.820312 -1.765625 4.28125 -1.765625 C 4.738281 -1.765625 5.109375 -1.910156 5.390625 -2.203125 C 5.679688 -2.492188 5.828125 -2.863281 5.828125 -3.3125 C 5.828125 -3.769531 5.675781 -4.144531 5.375 -4.4375 C 5.082031 -4.738281 4.71875 -4.890625 4.28125 -4.890625 C 3.84375 -4.890625 3.472656 -4.738281 3.171875 -4.4375 Z M 3.171875 -4.4375 "/></g></g></g><g fill="#ffffff" fill-opacity="1"><g transform="translate(167.620677, 19.920022)"><g><path d="M 0.78125 0 L 0.78125 -11.140625 L 3.0625 -11.140625 L 3.0625 0 Z M 0.78125 0 "/></g></g></g></svg>