<svg xmlns="http://www.w3.org/2000/svg" xmlns:xlink="http://www.w3.org/1999/xlink" width="107" zoomAndPan="magnify" viewBox="0 0 80.25 88.499998" height="118" preserveAspectRatio="xMidYMid meet" version="1.0"><defs><g/><clipPath id="31c212314f"><path d="M 0 0.160156 L 78.796875 0.160156 L 78.796875 87 L 0 87 Z M 0 0.160156 " clip-rule="nonzero"/></clipPath><clipPath id="002b0607e9"><path d="M 78.796875 0.160156 L 78.796875 87.109375 L 39.398438 73.523438 L 0 87.109375 L 0 0.160156 Z M 78.796875 0.160156 " clip-rule="nonzero"/></clipPath><clipPath id="c814f3fdef"><path d="M 18.71875 22.957031 L 60.332031 22.957031 L 60.332031 64.566406 L 18.71875 64.566406 Z M 18.71875 22.957031 " clip-rule="nonzero"/></clipPath></defs><g clip-path="url(#31c212314f)"><g clip-path="url(#002b0607e9)"><path fill="#ffffff" d="M 0 0.160156 L 78.796875 0.160156 L 78.796875 86.960938 L 0 86.960938 Z M 0 0.160156 " fill-opacity="1" fill-rule="nonzero"/></g></g><g clip-path="url(#c814f3fdef)"><path fill="#690189" d="M 39.398438 22.957031 C 27.976562 22.957031 18.71875 32.214844 18.71875 43.632812 C 18.71875 55.054688 27.976562 64.3125 39.398438 64.3125 C 50.816406 64.3125 60.074219 55.054688 60.074219 43.632812 C 60.074219 32.214844 50.816406 22.957031 39.398438 22.957031 Z M 39.398438 62.746094 C 28.84375 62.746094 20.285156 54.191406 20.285156 43.632812 C 20.285156 33.078125 28.84375 24.523438 39.398438 24.523438 C 49.953125 24.523438 58.507812 33.078125 58.507812 43.632812 C 58.507812 54.191406 49.953125 62.746094 39.398438 62.746094 Z M 39.398438 62.746094 " fill-opacity="1" fill-rule="nonzero"/></g><path fill="#690189" d="M 36.96875 53.769531 C 36.453125 53.820312 36.039062 53.878906 35.621094 53.898438 C 33.261719 54.007812 31.515625 53.078125 30.457031 50.910156 C 30.117188 50.21875 29.6875 49.566406 29.238281 48.941406 C 28.964844 48.566406 28.589844 48.261719 28.238281 47.949219 L 28.234375 47.945312 C 28.019531 47.757812 28.113281 47.398438 28.398438 47.351562 C 28.730469 47.296875 29.042969 47.355469 29.34375 47.433594 C 30.292969 47.675781 30.902344 48.347656 31.386719 49.152344 C 32.484375 50.972656 34.375 51.730469 36.417969 51.1875 C 36.765625 51.097656 36.917969 50.945312 36.992188 50.570312 C 37.082031 50.128906 37.199219 49.691406 37.328125 49.25 C 37.367188 49.117188 37.378906 48.984375 37.359375 48.847656 C 37.34375 48.710938 37.300781 48.582031 37.230469 48.464844 C 37.164062 48.34375 37.074219 48.246094 36.960938 48.164062 C 36.851562 48.082031 36.730469 48.023438 36.597656 47.992188 L 36.585938 47.992188 C 34.464844 47.484375 32.632812 46.539062 31.453125 44.601562 C 30.820312 43.566406 30.511719 42.425781 30.527344 41.234375 C 30.542969 39.886719 30.664062 38.535156 30.820312 37.195312 C 30.925781 36.25 31.363281 35.414062 32.042969 34.734375 C 32.28125 34.496094 32.300781 34.296875 32.1875 33.992188 C 31.71875 32.738281 31.800781 31.480469 32.214844 30.222656 C 32.332031 29.867188 32.5 29.816406 32.839844 29.921875 C 33.886719 30.253906 34.671875 30.9375 35.359375 31.757812 L 35.367188 31.765625 C 35.546875 31.976562 35.765625 32.121094 36.03125 32.199219 C 36.296875 32.277344 36.5625 32.269531 36.824219 32.1875 C 39.007812 31.472656 42.3125 31.460938 44.367188 32.167969 C 44.632812 32.257812 44.898438 32.265625 45.167969 32.191406 C 45.4375 32.113281 45.660156 31.96875 45.839844 31.753906 L 45.847656 31.746094 C 46.535156 30.929688 47.324219 30.25 48.375 29.917969 C 48.726562 29.808594 48.875 29.890625 48.988281 30.234375 C 49.398438 31.492188 49.46875 32.742188 49.023438 34.011719 C 48.960938 34.191406 48.964844 34.5 49.074219 34.613281 C 50.015625 35.566406 50.429688 36.753906 50.53125 38.035156 C 50.632812 39.277344 50.742188 40.539062 50.628906 41.769531 C 50.328125 44.976562 48.378906 46.839844 45.417969 47.769531 C 45.164062 47.847656 44.90625 47.914062 44.644531 47.976562 C 44.507812 48.011719 44.378906 48.070312 44.265625 48.15625 C 44.152344 48.242188 44.0625 48.347656 43.996094 48.472656 C 43.925781 48.59375 43.886719 48.726562 43.875 48.871094 C 43.863281 49.011719 43.878906 49.148438 43.925781 49.285156 C 44.332031 50.453125 44.269531 51.703125 44.261719 52.945312 C 44.261719 53.230469 44.261719 53.515625 44.257812 53.800781 C 44.257812 54.277344 44.167969 54.734375 43.984375 55.175781 C 43.800781 55.617188 43.539062 56.007812 43.199219 56.34375 C 42.863281 56.679688 42.472656 56.941406 42.03125 57.121094 C 41.589844 57.304688 41.132812 57.394531 40.65625 57.394531 L 40.574219 57.394531 C 40.097656 57.394531 39.636719 57.304688 39.195312 57.121094 C 38.753906 56.9375 38.363281 56.679688 38.027344 56.339844 C 37.6875 56.003906 37.425781 55.613281 37.246094 55.171875 C 37.0625 54.730469 36.96875 54.269531 36.96875 53.792969 Z M 36.96875 53.769531 " fill-opacity="1" fill-rule="nonzero"/><g fill="#000000" fill-opacity="1"><g transform="translate(26.817378, 11.193463)"><g><path d="M 5.59375 -3.203125 L 5.59375 -1.96875 C 5.445312 -1.28125 5.125 -0.757812 4.625 -0.40625 C 4.125 -0.0625 3.566406 0.109375 2.953125 0.109375 C 2.179688 0.109375 1.519531 -0.175781 0.96875 -0.75 C 0.425781 -1.332031 0.15625 -2.035156 0.15625 -2.859375 C 0.15625 -3.691406 0.421875 -4.394531 0.953125 -4.96875 C 1.484375 -5.539062 2.148438 -5.828125 2.953125 -5.828125 C 3.878906 -5.828125 4.613281 -5.5 5.15625 -4.84375 L 4.296875 -3.90625 C 3.992188 -4.394531 3.570312 -4.640625 3.03125 -4.640625 C 2.625 -4.640625 2.273438 -4.460938 1.984375 -4.109375 C 1.703125 -3.765625 1.5625 -3.347656 1.5625 -2.859375 C 1.5625 -2.367188 1.703125 -1.953125 1.984375 -1.609375 C 2.273438 -1.265625 2.625 -1.09375 3.03125 -1.09375 C 3.363281 -1.09375 3.648438 -1.191406 3.890625 -1.390625 C 4.140625 -1.597656 4.265625 -1.867188 4.265625 -2.203125 L 2.953125 -2.203125 L 2.953125 -3.203125 Z M 5.59375 -3.203125 "/></g></g></g><g fill="#000000" fill-opacity="1"><g transform="translate(32.567303, 11.193463)"><g><path d="M 0.53125 -5.546875 C 0.675781 -5.691406 0.847656 -5.765625 1.046875 -5.765625 C 1.242188 -5.765625 1.414062 -5.691406 1.5625 -5.546875 C 1.707031 -5.398438 1.78125 -5.226562 1.78125 -5.03125 C 1.78125 -4.832031 1.707031 -4.660156 1.5625 -4.515625 C 1.414062 -4.367188 1.242188 -4.296875 1.046875 -4.296875 C 0.847656 -4.296875 0.675781 -4.367188 0.53125 -4.515625 C 0.382812 -4.660156 0.3125 -4.832031 0.3125 -5.03125 C 0.3125 -5.226562 0.382812 -5.398438 0.53125 -5.546875 Z M 0.421875 -3.5625 L 0.421875 0 L 1.640625 0 L 1.640625 -3.5625 Z M 0.421875 -3.5625 "/></g></g></g><g fill="#000000" fill-opacity="1"><g transform="translate(34.661966, 11.193463)"><g><path d="M 0.625 -3.5625 L 0.625 -4.890625 L 1.859375 -4.890625 L 1.859375 -3.5625 L 2.609375 -3.5625 L 2.609375 -2.625 L 1.859375 -2.625 L 1.859375 -1.484375 C 1.859375 -1.160156 1.945312 -1 2.125 -1 C 2.175781 -1 2.226562 -1.003906 2.28125 -1.015625 C 2.332031 -1.035156 2.367188 -1.054688 2.390625 -1.078125 L 2.4375 -1.109375 L 2.734375 -0.125 C 2.472656 0.03125 2.175781 0.109375 1.84375 0.109375 C 1.601562 0.109375 1.398438 0.0664062 1.234375 -0.015625 C 1.066406 -0.0976562 0.941406 -0.207031 0.859375 -0.34375 C 0.773438 -0.476562 0.710938 -0.617188 0.671875 -0.765625 C 0.640625 -0.921875 0.625 -1.082031 0.625 -1.25 L 0.625 -2.625 L 0.109375 -2.625 L 0.109375 -3.5625 Z M 0.625 -3.5625 "/></g></g></g><g fill="#000000" fill-opacity="1"><g transform="translate(37.401677, 11.193463)"><g><path d="M 1.71875 -2.296875 L 1.71875 0 L 0.421875 0 L 0.421875 -5.71875 L 1.71875 -5.71875 L 1.71875 -3.4375 L 3.5625 -3.4375 L 3.5625 -5.71875 L 4.875 -5.71875 L 4.875 0 L 3.5625 0 L 3.5625 -2.296875 Z M 1.71875 -2.296875 "/></g></g></g><g fill="#000000" fill-opacity="1"><g transform="translate(42.686886, 11.193463)"><g><path d="M 1.578125 -3.5625 L 1.578125 -1.859375 C 1.578125 -1.515625 1.628906 -1.265625 1.734375 -1.109375 C 1.835938 -0.960938 2.015625 -0.890625 2.265625 -0.890625 C 2.523438 -0.890625 2.707031 -0.960938 2.8125 -1.109375 C 2.914062 -1.265625 2.96875 -1.515625 2.96875 -1.859375 L 2.96875 -3.5625 L 4.203125 -3.5625 L 4.203125 -1.5625 C 4.203125 -0.976562 4.046875 -0.550781 3.734375 -0.28125 C 3.429688 -0.0195312 2.941406 0.109375 2.265625 0.109375 C 1.597656 0.109375 1.109375 -0.0195312 0.796875 -0.28125 C 0.492188 -0.550781 0.34375 -0.976562 0.34375 -1.5625 L 0.34375 -3.5625 Z M 1.578125 -3.5625 "/></g></g></g><g fill="#000000" fill-opacity="1"><g transform="translate(47.236885, 11.193463)"><g><path d="M 4.078125 -3.109375 C 4.410156 -2.742188 4.578125 -2.296875 4.578125 -1.765625 C 4.578125 -1.242188 4.410156 -0.800781 4.078125 -0.4375 C 3.742188 -0.0703125 3.320312 0.109375 2.8125 0.109375 C 2.34375 0.109375 1.953125 -0.0625 1.640625 -0.40625 L 1.625 -0.40625 L 1.625 0 L 0.421875 0 L 0.421875 -5.96875 L 1.640625 -5.96875 L 1.640625 -3.21875 C 1.953125 -3.507812 2.34375 -3.65625 2.8125 -3.65625 C 3.320312 -3.65625 3.742188 -3.472656 4.078125 -3.109375 Z M 3.046875 -1.171875 C 3.203125 -1.328125 3.28125 -1.523438 3.28125 -1.765625 C 3.28125 -2.015625 3.195312 -2.21875 3.03125 -2.375 C 2.875 -2.53125 2.675781 -2.609375 2.4375 -2.609375 C 2.207031 -2.609375 2.007812 -2.53125 1.84375 -2.375 C 1.6875 -2.21875 1.609375 -2.019531 1.609375 -1.78125 C 1.609375 -1.539062 1.6875 -1.335938 1.84375 -1.171875 C 2 -1.015625 2.195312 -0.9375 2.4375 -0.9375 C 2.6875 -0.9375 2.890625 -1.015625 3.046875 -1.171875 Z M 3.046875 -1.171875 "/></g></g></g></svg>