<svg xmlns="http://www.w3.org/2000/svg" xmlns:xlink="http://www.w3.org/1999/xlink" width="312" zoomAndPan="magnify" viewBox="0 0 234 35.25" height="47" preserveAspectRatio="xMidYMid meet" version="1.0"><defs><g/><clipPath id="d9b49354b3"><path d="M 2.46875 0 L 231.5625 0 L 231.5625 33.78125 L 2.46875 33.78125 Z M 2.46875 0 " clip-rule="nonzero"/></clipPath><clipPath id="a99d8483fe"><path d="M 14.214844 0 L 219.773438 0 C 222.886719 0 225.875 1.238281 228.078125 3.441406 C 230.28125 5.644531 231.519531 8.632812 231.519531 11.746094 L 231.519531 22.207031 C 231.519531 25.324219 230.28125 28.308594 228.078125 30.511719 C 225.875 32.714844 222.886719 33.953125 219.773438 33.953125 L 14.214844 33.953125 C 11.101562 33.953125 8.113281 32.714844 5.910156 30.511719 C 3.707031 28.308594 2.46875 25.324219 2.46875 22.207031 L 2.46875 11.746094 C 2.46875 8.632812 3.707031 5.644531 5.910156 3.441406 C 8.113281 1.238281 11.101562 0 14.214844 0 Z M 14.214844 0 " clip-rule="nonzero"/></clipPath><clipPath id="e09717c099"><path d="M 201 3.570312 L 228.019531 3.570312 L 228.019531 30.742188 L 201 30.742188 Z M 201 3.570312 " clip-rule="nonzero"/></clipPath></defs><g clip-path="url(#d9b49354b3)"><g clip-path="url(#a99d8483fe)"><path stroke-linecap="butt" transform="matrix(0.734375, 0, 0, 0.734375, 2.47041, 0.000000979167)" fill="none" stroke-linejoin="miter" d="M 15.992421 -0.00000133333 L 295.902007 -0.00000133333 C 300.141369 -0.00000133333 304.210518 1.686169 307.210518 4.686169 C 310.210518 7.686169 311.896689 11.755318 311.896689 15.99468 L 311.896689 30.239362 C 311.896689 34.484043 310.210518 38.547873 307.210518 41.547873 C 304.210518 44.547873 300.141369 46.234043 295.902007 46.234043 L 15.992421 46.234043 C 11.753059 46.234043 7.68391 44.547873 4.68391 41.547873 C 1.68391 38.547873 -0.00226043 34.484043 -0.00226043 30.239362 L -0.00226043 15.99468 C -0.00226043 11.755318 1.68391 7.686169 4.68391 4.686169 C 7.68391 1.686169 11.753059 -0.00000133333 15.992421 -0.00000133333 Z M 15.992421 -0.00000133333 " stroke="#ffffff" stroke-width="4" stroke-opacity="1" stroke-miterlimit="4"/></g></g><g clip-path="url(#e09717c099)"><path fill="#ffffff" d="M 202.097656 16.976562 C 202.097656 10.078125 207.710938 4.464844 214.613281 4.464844 C 221.515625 4.464844 227.125 10.078125 227.125 16.976562 C 227.125 23.878906 221.515625 29.492188 214.613281 29.492188 C 207.710938 29.492188 202.097656 23.878906 202.097656 16.976562 Z M 228.019531 16.976562 C 228.019531 9.585938 222.007812 3.570312 214.613281 3.570312 C 207.21875 3.570312 201.203125 9.585938 201.203125 16.976562 C 201.203125 24.371094 207.21875 30.386719 214.613281 30.386719 C 222.007812 30.386719 228.019531 24.371094 228.019531 16.976562 " fill-opacity="1" fill-rule="nonzero"/></g><path fill="#ffffff" d="M 222.519531 14.617188 C 222.699219 14.445312 222.703125 14.160156 222.53125 13.984375 C 222.359375 13.808594 222.078125 13.804688 221.898438 13.976562 L 214.675781 20.972656 C 214.640625 21.007812 214.585938 21.007812 214.550781 20.972656 L 207.324219 13.976562 C 207.148438 13.804688 206.863281 13.808594 206.695312 13.984375 C 206.609375 14.070312 206.566406 14.183594 206.566406 14.296875 C 206.566406 14.414062 206.613281 14.53125 206.703125 14.617188 L 213.929688 21.613281 C 214.3125 21.988281 214.914062 21.988281 215.296875 21.613281 L 222.519531 14.617188 " fill-opacity="1" fill-rule="nonzero"/><g fill="#ffffff" fill-opacity="1"><g transform="translate(8.938828, 19.920022)"><g><path d="M 3.21875 -4.28125 L 3.21875 0 L 0.78125 0 L 0.78125 -10.6875 L 3.21875 -10.6875 L 3.21875 -6.421875 L 6.65625 -6.421875 L 6.65625 -10.6875 L 9.09375 -10.6875 L 9.09375 0 L 6.65625 0 L 6.65625 -4.28125 Z M 3.21875 -4.28125 "/></g></g></g><g fill="#ffffff" fill-opacity="1"><g transform="translate(18.802782, 19.920022)"><g><path d="M 1.21875 -0.828125 C 0.601562 -1.503906 0.296875 -2.332031 0.296875 -3.3125 C 0.296875 -4.300781 0.601562 -5.132812 1.21875 -5.8125 C 1.84375 -6.5 2.632812 -6.84375 3.59375 -6.84375 C 4.476562 -6.84375 5.207031 -6.566406 5.78125 -6.015625 L 5.78125 -6.640625 L 8.0625 -6.640625 L 8.0625 0 L 5.796875 0 L 5.796875 -0.75 L 5.78125 -0.75 C 5.207031 -0.125 4.476562 0.1875 3.59375 0.1875 C 2.632812 0.1875 1.84375 -0.148438 1.21875 -0.828125 Z M 3.171875 -4.4375 C 2.878906 -4.144531 2.734375 -3.769531 2.734375 -3.3125 C 2.734375 -2.851562 2.875 -2.476562 3.15625 -2.1875 C 3.445312 -1.90625 3.820312 -1.765625 4.28125 -1.765625 C 4.738281 -1.765625 5.109375 -1.910156 5.390625 -2.203125 C 5.679688 -2.492188 5.828125 -2.863281 5.828125 -3.3125 C 5.828125 -3.769531 5.675781 -4.144531 5.375 -4.4375 C 5.082031 -4.738281 4.71875 -4.890625 4.28125 -4.890625 C 3.84375 -4.890625 3.472656 -4.738281 3.171875 -4.4375 Z M 3.171875 -4.4375 "/></g></g></g><g fill="#ffffff" fill-opacity="1"><g transform="translate(27.644087, 19.920022)"><g><path d="M 7.609375 -5.8125 C 8.234375 -5.132812 8.546875 -4.300781 8.546875 -3.3125 C 8.546875 -2.332031 8.234375 -1.503906 7.609375 -0.828125 C 6.992188 -0.148438 6.207031 0.1875 5.25 0.1875 C 4.363281 0.1875 3.632812 -0.125 3.0625 -0.75 L 3.046875 -0.75 L 3.046875 0 L 0.78125 0 L 0.78125 -11.140625 L 3.0625 -11.140625 L 3.0625 -6.015625 C 3.632812 -6.566406 4.363281 -6.84375 5.25 -6.84375 C 6.207031 -6.84375 6.992188 -6.5 7.609375 -5.8125 Z M 5.6875 -2.1875 C 5.96875 -2.476562 6.109375 -2.851562 6.109375 -3.3125 C 6.109375 -3.769531 5.957031 -4.144531 5.65625 -4.4375 C 5.363281 -4.738281 5 -4.890625 4.5625 -4.890625 C 4.125 -4.890625 3.753906 -4.738281 3.453125 -4.4375 C 3.160156 -4.144531 3.015625 -3.769531 3.015625 -3.3125 C 3.015625 -2.863281 3.160156 -2.492188 3.453125 -2.203125 C 3.742188 -1.910156 4.113281 -1.765625 4.5625 -1.765625 C 5.03125 -1.765625 5.40625 -1.90625 5.6875 -2.1875 Z M 5.6875 -2.1875 "/></g></g></g><g fill="#ffffff" fill-opacity="1"><g transform="translate(36.485391, 19.920022)"><g><path d="M 1 -10.34375 C 1.269531 -10.613281 1.585938 -10.75 1.953125 -10.75 C 2.328125 -10.75 2.644531 -10.613281 2.90625 -10.34375 C 3.175781 -10.082031 3.3125 -9.765625 3.3125 -9.390625 C 3.3125 -9.015625 3.175781 -8.691406 2.90625 -8.421875 C 2.644531 -8.160156 2.328125 -8.03125 1.953125 -8.03125 C 1.585938 -8.03125 1.269531 -8.160156 1 -8.421875 C 0.726562 -8.691406 0.59375 -9.015625 0.59375 -9.390625 C 0.59375 -9.765625 0.726562 -10.082031 1 -10.34375 Z M 0.78125 -6.640625 L 0.78125 0 L 3.0625 0 L 3.0625 -6.640625 Z M 0.78125 -6.640625 "/></g></g></g><g fill="#ffffff" fill-opacity="1"><g transform="translate(40.39473, 19.920022)"><g><path d="M 0.78125 0 L 0.78125 -11.140625 L 3.0625 -11.140625 L 3.0625 0 Z M 0.78125 0 "/></g></g></g><g fill="#ffffff" fill-opacity="1"><g transform="translate(44.239338, 19.920022)"><g><path d="M 1 -10.34375 C 1.269531 -10.613281 1.585938 -10.75 1.953125 -10.75 C 2.328125 -10.75 2.644531 -10.613281 2.90625 -10.34375 C 3.175781 -10.082031 3.3125 -9.765625 3.3125 -9.390625 C 3.3125 -9.015625 3.175781 -8.691406 2.90625 -8.421875 C 2.644531 -8.160156 2.328125 -8.03125 1.953125 -8.03125 C 1.585938 -8.03125 1.269531 -8.160156 1 -8.421875 C 0.726562 -8.691406 0.59375 -9.015625 0.59375 -9.390625 C 0.59375 -9.765625 0.726562 -10.082031 1 -10.34375 Z M 0.78125 -6.640625 L 0.78125 0 L 3.0625 0 L 3.0625 -6.640625 Z M 0.78125 -6.640625 "/></g></g></g><g fill="#ffffff" fill-opacity="1"><g transform="translate(48.148677, 19.920022)"><g><path d="M 1.21875 -0.828125 C 0.601562 -1.503906 0.296875 -2.332031 0.296875 -3.3125 C 0.296875 -4.300781 0.601562 -5.132812 1.21875 -5.8125 C 1.84375 -6.5 2.632812 -6.84375 3.59375 -6.84375 C 4.476562 -6.84375 5.207031 -6.566406 5.78125 -6.015625 L 5.78125 -11.140625 L 8.0625 -11.140625 L 8.0625 0 L 5.796875 0 L 5.796875 -0.75 L 5.78125 -0.75 C 5.207031 -0.125 4.476562 0.1875 3.59375 0.1875 C 2.632812 0.1875 1.84375 -0.148438 1.21875 -0.828125 Z M 3.171875 -4.4375 C 2.878906 -4.144531 2.734375 -3.769531 2.734375 -3.3125 C 2.734375 -2.851562 2.875 -2.476562 3.15625 -2.1875 C 3.445312 -1.90625 3.820312 -1.765625 4.28125 -1.765625 C 4.738281 -1.765625 5.109375 -1.910156 5.390625 -2.203125 C 5.679688 -2.492188 5.828125 -2.863281 5.828125 -3.3125 C 5.828125 -3.769531 5.675781 -4.144531 5.375 -4.4375 C 5.082031 -4.738281 4.71875 -4.890625 4.28125 -4.890625 C 3.84375 -4.890625 3.472656 -4.738281 3.171875 -4.4375 Z M 3.171875 -4.4375 "/></g></g></g><g fill="#ffffff" fill-opacity="1"><g transform="translate(56.989981, 19.920022)"><g><path d="M 1.21875 -0.828125 C 0.601562 -1.503906 0.296875 -2.332031 0.296875 -3.3125 C 0.296875 -4.300781 0.601562 -5.132812 1.21875 -5.8125 C 1.84375 -6.5 2.632812 -6.84375 3.59375 -6.84375 C 4.476562 -6.84375 5.207031 -6.566406 5.78125 -6.015625 L 5.78125 -6.640625 L 8.0625 -6.640625 L 8.0625 0 L 5.796875 0 L 5.796875 -0.75 L 5.78125 -0.75 C 5.207031 -0.125 4.476562 0.1875 3.59375 0.1875 C 2.632812 0.1875 1.84375 -0.148438 1.21875 -0.828125 Z M 3.171875 -4.4375 C 2.878906 -4.144531 2.734375 -3.769531 2.734375 -3.3125 C 2.734375 -2.851562 2.875 -2.476562 3.15625 -2.1875 C 3.445312 -1.90625 3.820312 -1.765625 4.28125 -1.765625 C 4.738281 -1.765625 5.109375 -1.910156 5.390625 -2.203125 C 5.679688 -2.492188 5.828125 -2.863281 5.828125 -3.3125 C 5.828125 -3.769531 5.675781 -4.144531 5.375 -4.4375 C 5.082031 -4.738281 4.71875 -4.890625 4.28125 -4.890625 C 3.84375 -4.890625 3.472656 -4.738281 3.171875 -4.4375 Z M 3.171875 -4.4375 "/></g></g></g><g fill="#ffffff" fill-opacity="1"><g transform="translate(65.831286, 19.920022)"><g><path d="M 1.21875 -0.828125 C 0.601562 -1.503906 0.296875 -2.332031 0.296875 -3.3125 C 0.296875 -4.300781 0.601562 -5.132812 1.21875 -5.8125 C 1.84375 -6.5 2.632812 -6.84375 3.59375 -6.84375 C 4.476562 -6.84375 5.207031 -6.566406 5.78125 -6.015625 L 5.78125 -11.140625 L 8.0625 -11.140625 L 8.0625 0 L 5.796875 0 L 5.796875 -0.75 L 5.78125 -0.75 C 5.207031 -0.125 4.476562 0.1875 3.59375 0.1875 C 2.632812 0.1875 1.84375 -0.148438 1.21875 -0.828125 Z M 3.171875 -4.4375 C 2.878906 -4.144531 2.734375 -3.769531 2.734375 -3.3125 C 2.734375 -2.851562 2.875 -2.476562 3.15625 -2.1875 C 3.445312 -1.90625 3.820312 -1.765625 4.28125 -1.765625 C 4.738281 -1.765625 5.109375 -1.910156 5.390625 -2.203125 C 5.679688 -2.492188 5.828125 -2.863281 5.828125 -3.3125 C 5.828125 -3.769531 5.675781 -4.144531 5.375 -4.4375 C 5.082031 -4.738281 4.71875 -4.890625 4.28125 -4.890625 C 3.84375 -4.890625 3.472656 -4.738281 3.171875 -4.4375 Z M 3.171875 -4.4375 "/></g></g></g><g fill="#ffffff" fill-opacity="1"><g transform="translate(74.67259, 19.920022)"><g><path d="M 7.5 -3 L 2.6875 -3 C 2.6875 -2.539062 2.835938 -2.195312 3.140625 -1.96875 C 3.441406 -1.738281 3.769531 -1.625 4.125 -1.625 C 4.488281 -1.625 4.78125 -1.675781 5 -1.78125 C 5.21875 -1.882812 5.460938 -2.082031 5.734375 -2.375 L 7.390625 -1.546875 C 6.703125 -0.390625 5.554688 0.1875 3.953125 0.1875 C 2.953125 0.1875 2.09375 -0.148438 1.375 -0.828125 C 0.65625 -1.515625 0.296875 -2.34375 0.296875 -3.3125 C 0.296875 -4.28125 0.65625 -5.109375 1.375 -5.796875 C 2.09375 -6.492188 2.953125 -6.84375 3.953125 -6.84375 C 5.003906 -6.84375 5.859375 -6.535156 6.515625 -5.921875 C 7.179688 -5.316406 7.515625 -4.445312 7.515625 -3.3125 C 7.515625 -3.15625 7.507812 -3.050781 7.5 -3 Z M 2.75 -4.28125 L 5.265625 -4.28125 C 5.210938 -4.625 5.078125 -4.882812 4.859375 -5.0625 C 4.640625 -5.25 4.359375 -5.34375 4.015625 -5.34375 C 3.640625 -5.34375 3.335938 -5.242188 3.109375 -5.046875 C 2.878906 -4.847656 2.757812 -4.59375 2.75 -4.28125 Z M 2.75 -4.28125 "/></g></g></g><g fill="#ffffff" fill-opacity="1"><g transform="translate(82.478313, 19.920022)"><g><path d="M 3.671875 -6.84375 C 4.046875 -6.84375 4.414062 -6.796875 4.78125 -6.703125 C 5.15625 -6.617188 5.4375 -6.535156 5.625 -6.453125 L 5.890625 -6.328125 L 5.140625 -4.8125 C 4.617188 -5.09375 4.128906 -5.234375 3.671875 -5.234375 C 3.410156 -5.234375 3.222656 -5.203125 3.109375 -5.140625 C 3.003906 -5.085938 2.953125 -4.984375 2.953125 -4.828125 C 2.953125 -4.796875 2.957031 -4.757812 2.96875 -4.71875 C 2.976562 -4.6875 2.992188 -4.65625 3.015625 -4.625 C 3.046875 -4.59375 3.070312 -4.566406 3.09375 -4.546875 C 3.113281 -4.523438 3.148438 -4.5 3.203125 -4.46875 C 3.253906 -4.445312 3.296875 -4.429688 3.328125 -4.421875 C 3.359375 -4.410156 3.40625 -4.390625 3.46875 -4.359375 C 3.539062 -4.335938 3.59375 -4.316406 3.625 -4.296875 C 3.65625 -4.285156 3.710938 -4.265625 3.796875 -4.234375 C 3.878906 -4.210938 3.941406 -4.203125 3.984375 -4.203125 C 4.253906 -4.117188 4.488281 -4.03125 4.6875 -3.9375 C 4.882812 -3.84375 5.09375 -3.710938 5.3125 -3.546875 C 5.53125 -3.378906 5.703125 -3.171875 5.828125 -2.921875 C 5.953125 -2.671875 6.015625 -2.390625 6.015625 -2.078125 C 6.015625 -0.566406 4.960938 0.1875 2.859375 0.1875 C 2.390625 0.1875 1.941406 0.113281 1.515625 -0.03125 C 1.085938 -0.175781 0.773438 -0.320312 0.578125 -0.46875 L 0.296875 -0.703125 L 1.234375 -2.265625 C 1.296875 -2.203125 1.382812 -2.128906 1.5 -2.046875 C 1.613281 -1.972656 1.816406 -1.863281 2.109375 -1.71875 C 2.398438 -1.570312 2.65625 -1.5 2.875 -1.5 C 3.351562 -1.5 3.59375 -1.660156 3.59375 -1.984375 C 3.59375 -2.128906 3.53125 -2.242188 3.40625 -2.328125 C 3.28125 -2.410156 3.070312 -2.503906 2.78125 -2.609375 C 2.5 -2.710938 2.273438 -2.804688 2.109375 -2.890625 C 1.691406 -3.109375 1.363281 -3.351562 1.125 -3.625 C 0.882812 -3.894531 0.765625 -4.253906 0.765625 -4.703125 C 0.765625 -5.378906 1.023438 -5.90625 1.546875 -6.28125 C 2.066406 -6.65625 2.773438 -6.84375 3.671875 -6.84375 Z M 3.671875 -6.84375 "/></g></g></g><g fill="#ffffff" fill-opacity="1"><g transform="translate(88.847157, 19.920022)"><g/></g></g><g fill="#ffffff" fill-opacity="1"><g transform="translate(92.381088, 19.920022)"><g><path d="M 7.5 -3 L 2.6875 -3 C 2.6875 -2.539062 2.835938 -2.195312 3.140625 -1.96875 C 3.441406 -1.738281 3.769531 -1.625 4.125 -1.625 C 4.488281 -1.625 4.78125 -1.675781 5 -1.78125 C 5.21875 -1.882812 5.460938 -2.082031 5.734375 -2.375 L 7.390625 -1.546875 C 6.703125 -0.390625 5.554688 0.1875 3.953125 0.1875 C 2.953125 0.1875 2.09375 -0.148438 1.375 -0.828125 C 0.65625 -1.515625 0.296875 -2.34375 0.296875 -3.3125 C 0.296875 -4.28125 0.65625 -5.109375 1.375 -5.796875 C 2.09375 -6.492188 2.953125 -6.84375 3.953125 -6.84375 C 5.003906 -6.84375 5.859375 -6.535156 6.515625 -5.921875 C 7.179688 -5.316406 7.515625 -4.445312 7.515625 -3.3125 C 7.515625 -3.15625 7.507812 -3.050781 7.5 -3 Z M 2.75 -4.28125 L 5.265625 -4.28125 C 5.210938 -4.625 5.078125 -4.882812 4.859375 -5.0625 C 4.640625 -5.25 4.359375 -5.34375 4.015625 -5.34375 C 3.640625 -5.34375 3.335938 -5.242188 3.109375 -5.046875 C 2.878906 -4.847656 2.757812 -4.59375 2.75 -4.28125 Z M 2.75 -4.28125 "/></g></g></g><g fill="#ffffff" fill-opacity="1"><g transform="translate(100.18681, 19.920022)"><g/></g></g><g fill="#ffffff" fill-opacity="1"><g transform="translate(103.720741, 19.920022)"><g><path d="M 6.46875 -2.203125 C 6.832031 -2.203125 7.1875 -2.253906 7.53125 -2.359375 C 7.882812 -2.472656 8.144531 -2.582031 8.3125 -2.6875 L 8.5625 -2.859375 L 9.59375 -0.796875 C 9.5625 -0.765625 9.515625 -0.726562 9.453125 -0.6875 C 9.390625 -0.644531 9.25 -0.5625 9.03125 -0.4375 C 8.8125 -0.320312 8.578125 -0.222656 8.328125 -0.140625 C 8.078125 -0.0546875 7.75 0.015625 7.34375 0.078125 C 6.9375 0.148438 6.519531 0.1875 6.09375 0.1875 C 5.09375 0.1875 4.148438 -0.0507812 3.265625 -0.53125 C 2.378906 -1.019531 1.660156 -1.691406 1.109375 -2.546875 C 0.566406 -3.398438 0.296875 -4.328125 0.296875 -5.328125 C 0.296875 -6.078125 0.453125 -6.796875 0.765625 -7.484375 C 1.085938 -8.171875 1.515625 -8.757812 2.046875 -9.25 C 2.578125 -9.75 3.195312 -10.144531 3.90625 -10.4375 C 4.613281 -10.726562 5.34375 -10.875 6.09375 -10.875 C 6.78125 -10.875 7.414062 -10.789062 8 -10.625 C 8.582031 -10.46875 8.992188 -10.304688 9.234375 -10.140625 L 9.59375 -9.890625 L 8.5625 -7.828125 C 8.5 -7.878906 8.40625 -7.941406 8.28125 -8.015625 C 8.164062 -8.085938 7.925781 -8.179688 7.5625 -8.296875 C 7.195312 -8.421875 6.832031 -8.484375 6.46875 -8.484375 C 5.875 -8.484375 5.34375 -8.390625 4.875 -8.203125 C 4.414062 -8.015625 4.050781 -7.765625 3.78125 -7.453125 C 3.507812 -7.140625 3.300781 -6.800781 3.15625 -6.4375 C 3.007812 -6.082031 2.9375 -5.71875 2.9375 -5.34375 C 2.9375 -4.53125 3.238281 -3.800781 3.84375 -3.15625 C 4.457031 -2.519531 5.332031 -2.203125 6.46875 -2.203125 Z M 6.46875 -2.203125 "/></g></g></g><g fill="#ffffff" fill-opacity="1"><g transform="translate(113.468188, 19.920022)"><g><path d="M 1.40625 -0.796875 C 0.664062 -1.453125 0.296875 -2.289062 0.296875 -3.3125 C 0.296875 -4.34375 0.679688 -5.1875 1.453125 -5.84375 C 2.222656 -6.507812 3.171875 -6.84375 4.296875 -6.84375 C 5.410156 -6.84375 6.347656 -6.507812 7.109375 -5.84375 C 7.878906 -5.175781 8.265625 -4.332031 8.265625 -3.3125 C 8.265625 -2.289062 7.890625 -1.453125 7.140625 -0.796875 C 6.390625 -0.140625 5.441406 0.1875 4.296875 0.1875 C 3.109375 0.1875 2.144531 -0.140625 1.40625 -0.796875 Z M 3.171875 -4.4375 C 2.878906 -4.144531 2.734375 -3.769531 2.734375 -3.3125 C 2.734375 -2.851562 2.875 -2.476562 3.15625 -2.1875 C 3.445312 -1.90625 3.820312 -1.765625 4.28125 -1.765625 C 4.738281 -1.765625 5.109375 -1.910156 5.390625 -2.203125 C 5.679688 -2.492188 5.828125 -2.863281 5.828125 -3.3125 C 5.828125 -3.769531 5.675781 -4.144531 5.375 -4.4375 C 5.082031 -4.738281 4.71875 -4.890625 4.28125 -4.890625 C 3.84375 -4.890625 3.472656 -4.738281 3.171875 -4.4375 Z M 3.171875 -4.4375 "/></g></g></g><g fill="#ffffff" fill-opacity="1"><g transform="translate(122.024715, 19.920022)"><g><path d="M 0.78125 0 L 0.78125 -6.640625 L 3.0625 -6.640625 L 3.0625 -5.953125 L 3.09375 -5.953125 C 3.6875 -6.546875 4.320312 -6.84375 5 -6.84375 C 5.476562 -6.84375 5.929688 -6.742188 6.359375 -6.546875 C 6.785156 -6.347656 7.101562 -6.039062 7.3125 -5.625 C 7.988281 -6.4375 8.722656 -6.84375 9.515625 -6.84375 C 10.222656 -6.84375 10.832031 -6.640625 11.34375 -6.234375 C 11.851562 -5.835938 12.109375 -5.21875 12.109375 -4.375 L 12.109375 0 L 9.8125 0 L 9.8125 -3.75 C 9.8125 -4.101562 9.710938 -4.398438 9.515625 -4.640625 C 9.328125 -4.878906 9.039062 -5 8.65625 -5 C 8.3125 -5 8.050781 -4.894531 7.875 -4.6875 C 7.695312 -4.488281 7.601562 -4.25 7.59375 -3.96875 L 7.59375 0 L 5.296875 0 L 5.296875 -3.75 C 5.296875 -4.101562 5.195312 -4.398438 5 -4.640625 C 4.8125 -4.878906 4.519531 -5 4.125 -5 C 3.769531 -5 3.503906 -4.890625 3.328125 -4.671875 C 3.148438 -4.453125 3.0625 -4.191406 3.0625 -3.890625 L 3.0625 0 Z M 0.78125 0 "/></g></g></g><g fill="#ffffff" fill-opacity="1"><g transform="translate(134.775358, 19.920022)"><g><path d="M 7.609375 -5.828125 C 8.234375 -5.148438 8.546875 -4.316406 8.546875 -3.328125 C 8.546875 -2.347656 8.234375 -1.515625 7.609375 -0.828125 C 6.992188 -0.148438 6.207031 0.1875 5.25 0.1875 C 4.363281 0.1875 3.632812 -0.0859375 3.0625 -0.640625 L 3.0625 3.375 L 0.78125 3.375 L 0.78125 -6.640625 L 3.046875 -6.640625 L 3.046875 -5.890625 L 3.0625 -5.890625 C 3.632812 -6.523438 4.363281 -6.84375 5.25 -6.84375 C 6.207031 -6.84375 6.992188 -6.503906 7.609375 -5.828125 Z M 5.65625 -2.203125 C 5.957031 -2.492188 6.109375 -2.867188 6.109375 -3.328125 C 6.109375 -3.785156 5.96875 -4.160156 5.6875 -4.453125 C 5.40625 -4.742188 5.03125 -4.890625 4.5625 -4.890625 C 4.113281 -4.890625 3.742188 -4.738281 3.453125 -4.4375 C 3.160156 -4.144531 3.015625 -3.773438 3.015625 -3.328125 C 3.015625 -2.867188 3.160156 -2.492188 3.453125 -2.203125 C 3.753906 -1.910156 4.125 -1.765625 4.5625 -1.765625 C 5 -1.765625 5.363281 -1.910156 5.65625 -2.203125 Z M 5.65625 -2.203125 "/></g></g></g><g fill="#ffffff" fill-opacity="1"><g transform="translate(143.616663, 19.920022)"><g><path d="M 7.5 -3 L 2.6875 -3 C 2.6875 -2.539062 2.835938 -2.195312 3.140625 -1.96875 C 3.441406 -1.738281 3.769531 -1.625 4.125 -1.625 C 4.488281 -1.625 4.78125 -1.675781 5 -1.78125 C 5.21875 -1.882812 5.460938 -2.082031 5.734375 -2.375 L 7.390625 -1.546875 C 6.703125 -0.390625 5.554688 0.1875 3.953125 0.1875 C 2.953125 0.1875 2.09375 -0.148438 1.375 -0.828125 C 0.65625 -1.515625 0.296875 -2.34375 0.296875 -3.3125 C 0.296875 -4.28125 0.65625 -5.109375 1.375 -5.796875 C 2.09375 -6.492188 2.953125 -6.84375 3.953125 -6.84375 C 5.003906 -6.84375 5.859375 -6.535156 6.515625 -5.921875 C 7.179688 -5.316406 7.515625 -4.445312 7.515625 -3.3125 C 7.515625 -3.15625 7.507812 -3.050781 7.5 -3 Z M 2.75 -4.28125 L 5.265625 -4.28125 C 5.210938 -4.625 5.078125 -4.882812 4.859375 -5.0625 C 4.640625 -5.25 4.359375 -5.34375 4.015625 -5.34375 C 3.640625 -5.34375 3.335938 -5.242188 3.109375 -5.046875 C 2.878906 -4.847656 2.757812 -4.59375 2.75 -4.28125 Z M 2.75 -4.28125 "/></g></g></g><g fill="#ffffff" fill-opacity="1"><g transform="translate(151.422385, 19.920022)"><g><path d="M 1.171875 -6.640625 L 1.171875 -9.125 L 3.453125 -9.125 L 3.453125 -6.640625 L 4.859375 -6.640625 L 4.859375 -4.890625 L 3.453125 -4.890625 L 3.453125 -2.78125 C 3.453125 -2.164062 3.628906 -1.859375 3.984375 -1.859375 C 4.066406 -1.859375 4.15625 -1.875 4.25 -1.90625 C 4.34375 -1.945312 4.414062 -1.984375 4.46875 -2.015625 L 4.546875 -2.078125 L 5.109375 -0.21875 C 4.617188 0.0507812 4.0625 0.1875 3.4375 0.1875 C 3 0.1875 2.625 0.113281 2.3125 -0.03125 C 2.007812 -0.1875 1.773438 -0.390625 1.609375 -0.640625 C 1.453125 -0.890625 1.335938 -1.15625 1.265625 -1.4375 C 1.203125 -1.71875 1.171875 -2.019531 1.171875 -2.34375 L 1.171875 -4.890625 L 0.203125 -4.890625 L 0.203125 -6.640625 Z M 1.171875 -6.640625 "/></g></g></g><g fill="#ffffff" fill-opacity="1"><g transform="translate(156.535589, 19.920022)"><g><path d="M 1.03125 -8.78125 L 3.90625 -10.875 L 6.765625 -8.78125 L 5.875 -7.609375 L 3.90625 -9.046875 L 1.921875 -7.609375 Z M 7.5 -3 L 2.6875 -3 C 2.6875 -2.539062 2.835938 -2.195312 3.140625 -1.96875 C 3.441406 -1.738281 3.769531 -1.625 4.125 -1.625 C 4.488281 -1.625 4.78125 -1.675781 5 -1.78125 C 5.21875 -1.882812 5.460938 -2.082031 5.734375 -2.375 L 7.390625 -1.546875 C 6.703125 -0.390625 5.554688 0.1875 3.953125 0.1875 C 2.953125 0.1875 2.09375 -0.148438 1.375 -0.828125 C 0.65625 -1.515625 0.296875 -2.34375 0.296875 -3.3125 C 0.296875 -4.28125 0.65625 -5.109375 1.375 -5.796875 C 2.09375 -6.492188 2.953125 -6.84375 3.953125 -6.84375 C 5.003906 -6.84375 5.859375 -6.535156 6.515625 -5.921875 C 7.179688 -5.316406 7.515625 -4.445312 7.515625 -3.3125 C 7.515625 -3.15625 7.507812 -3.050781 7.5 -3 Z M 2.75 -4.28125 L 5.265625 -4.28125 C 5.210938 -4.625 5.078125 -4.882812 4.859375 -5.0625 C 4.640625 -5.25 4.359375 -5.34375 4.015625 -5.34375 C 3.640625 -5.34375 3.335938 -5.242188 3.109375 -5.046875 C 2.878906 -4.847656 2.757812 -4.59375 2.75 -4.28125 Z M 2.75 -4.28125 "/></g></g></g><g fill="#ffffff" fill-opacity="1"><g transform="translate(164.341311, 19.920022)"><g><path d="M 0.78125 0 L 0.78125 -6.640625 L 3.0625 -6.640625 L 3.0625 -5.953125 L 3.09375 -5.953125 C 3.6875 -6.546875 4.320312 -6.84375 5 -6.84375 C 5.320312 -6.84375 5.644531 -6.796875 5.96875 -6.703125 C 6.300781 -6.617188 6.613281 -6.484375 6.90625 -6.296875 C 7.207031 -6.117188 7.453125 -5.863281 7.640625 -5.53125 C 7.828125 -5.195312 7.921875 -4.8125 7.921875 -4.375 L 7.921875 0 L 5.625 0 L 5.625 -3.75 C 5.625 -4.101562 5.515625 -4.40625 5.296875 -4.65625 C 5.078125 -4.914062 4.789062 -5.046875 4.4375 -5.046875 C 4.082031 -5.046875 3.765625 -4.910156 3.484375 -4.640625 C 3.203125 -4.378906 3.0625 -4.082031 3.0625 -3.75 L 3.0625 0 Z M 0.78125 0 "/></g></g></g><g fill="#ffffff" fill-opacity="1"><g transform="translate(172.897838, 19.920022)"><g><path d="M 4.3125 -4.96875 C 3.882812 -4.96875 3.515625 -4.804688 3.203125 -4.484375 C 2.890625 -4.160156 2.734375 -3.773438 2.734375 -3.328125 C 2.734375 -2.867188 2.890625 -2.476562 3.203125 -2.15625 C 3.515625 -1.84375 3.882812 -1.6875 4.3125 -1.6875 C 4.519531 -1.6875 4.71875 -1.710938 4.90625 -1.765625 C 5.09375 -1.816406 5.226562 -1.867188 5.3125 -1.921875 L 5.421875 -2 L 6.203125 -0.40625 C 6.140625 -0.363281 6.054688 -0.304688 5.953125 -0.234375 C 5.847656 -0.171875 5.601562 -0.0859375 5.21875 0.015625 C 4.832031 0.128906 4.421875 0.1875 3.984375 0.1875 C 3.003906 0.1875 2.144531 -0.148438 1.40625 -0.828125 C 0.664062 -1.515625 0.296875 -2.335938 0.296875 -3.296875 C 0.296875 -4.265625 0.664062 -5.097656 1.40625 -5.796875 C 2.144531 -6.492188 3.003906 -6.84375 3.984375 -6.84375 C 4.421875 -6.84375 4.820312 -6.789062 5.1875 -6.6875 C 5.5625 -6.582031 5.828125 -6.476562 5.984375 -6.375 L 6.203125 -6.21875 L 5.421875 -4.65625 C 5.140625 -4.863281 4.769531 -4.96875 4.3125 -4.96875 Z M 4.3125 -4.96875 "/></g></g></g><g fill="#ffffff" fill-opacity="1"><g transform="translate(179.253738, 19.920022)"><g><path d="M 1 -10.34375 C 1.269531 -10.613281 1.585938 -10.75 1.953125 -10.75 C 2.328125 -10.75 2.644531 -10.613281 2.90625 -10.34375 C 3.175781 -10.082031 3.3125 -9.765625 3.3125 -9.390625 C 3.3125 -9.015625 3.175781 -8.691406 2.90625 -8.421875 C 2.644531 -8.160156 2.328125 -8.03125 1.953125 -8.03125 C 1.585938 -8.03125 1.269531 -8.160156 1 -8.421875 C 0.726562 -8.691406 0.59375 -9.015625 0.59375 -9.390625 C 0.59375 -9.765625 0.726562 -10.082031 1 -10.34375 Z M 0.78125 -6.640625 L 0.78125 0 L 3.0625 0 L 3.0625 -6.640625 Z M 0.78125 -6.640625 "/></g></g></g><g fill="#ffffff" fill-opacity="1"><g transform="translate(183.163077, 19.920022)"><g><path d="M 1.21875 -0.828125 C 0.601562 -1.503906 0.296875 -2.332031 0.296875 -3.3125 C 0.296875 -4.300781 0.601562 -5.132812 1.21875 -5.8125 C 1.84375 -6.5 2.632812 -6.84375 3.59375 -6.84375 C 4.476562 -6.84375 5.207031 -6.566406 5.78125 -6.015625 L 5.78125 -6.640625 L 8.0625 -6.640625 L 8.0625 0 L 5.796875 0 L 5.796875 -0.75 L 5.78125 -0.75 C 5.207031 -0.125 4.476562 0.1875 3.59375 0.1875 C 2.632812 0.1875 1.84375 -0.148438 1.21875 -0.828125 Z M 3.171875 -4.4375 C 2.878906 -4.144531 2.734375 -3.769531 2.734375 -3.3125 C 2.734375 -2.851562 2.875 -2.476562 3.15625 -2.1875 C 3.445312 -1.90625 3.820312 -1.765625 4.28125 -1.765625 C 4.738281 -1.765625 5.109375 -1.910156 5.390625 -2.203125 C 5.679688 -2.492188 5.828125 -2.863281 5.828125 -3.3125 C 5.828125 -3.769531 5.675781 -4.144531 5.375 -4.4375 C 5.082031 -4.738281 4.71875 -4.890625 4.28125 -4.890625 C 3.84375 -4.890625 3.472656 -4.738281 3.171875 -4.4375 Z M 3.171875 -4.4375 "/></g></g></g><g fill="#ffffff" fill-opacity="1"><g transform="translate(192.004381, 19.920022)"><g><path d="M 3.671875 -6.84375 C 4.046875 -6.84375 4.414062 -6.796875 4.78125 -6.703125 C 5.15625 -6.617188 5.4375 -6.535156 5.625 -6.453125 L 5.890625 -6.328125 L 5.140625 -4.8125 C 4.617188 -5.09375 4.128906 -5.234375 3.671875 -5.234375 C 3.410156 -5.234375 3.222656 -5.203125 3.109375 -5.140625 C 3.003906 -5.085938 2.953125 -4.984375 2.953125 -4.828125 C 2.953125 -4.796875 2.957031 -4.757812 2.96875 -4.71875 C 2.976562 -4.6875 2.992188 -4.65625 3.015625 -4.625 C 3.046875 -4.59375 3.070312 -4.566406 3.09375 -4.546875 C 3.113281 -4.523438 3.148438 -4.5 3.203125 -4.46875 C 3.253906 -4.445312 3.296875 -4.429688 3.328125 -4.421875 C 3.359375 -4.410156 3.40625 -4.390625 3.46875 -4.359375 C 3.539062 -4.335938 3.59375 -4.316406 3.625 -4.296875 C 3.65625 -4.285156 3.710938 -4.265625 3.796875 -4.234375 C 3.878906 -4.210938 3.941406 -4.203125 3.984375 -4.203125 C 4.253906 -4.117188 4.488281 -4.03125 4.6875 -3.9375 C 4.882812 -3.84375 5.09375 -3.710938 5.3125 -3.546875 C 5.53125 -3.378906 5.703125 -3.171875 5.828125 -2.921875 C 5.953125 -2.671875 6.015625 -2.390625 6.015625 -2.078125 C 6.015625 -0.566406 4.960938 0.1875 2.859375 0.1875 C 2.390625 0.1875 1.941406 0.113281 1.515625 -0.03125 C 1.085938 -0.175781 0.773438 -0.320312 0.578125 -0.46875 L 0.296875 -0.703125 L 1.234375 -2.265625 C 1.296875 -2.203125 1.382812 -2.128906 1.5 -2.046875 C 1.613281 -1.972656 1.816406 -1.863281 2.109375 -1.71875 C 2.398438 -1.570312 2.65625 -1.5 2.875 -1.5 C 3.351562 -1.5 3.59375 -1.660156 3.59375 -1.984375 C 3.59375 -2.128906 3.53125 -2.242188 3.40625 -2.328125 C 3.28125 -2.410156 3.070312 -2.503906 2.78125 -2.609375 C 2.5 -2.710938 2.273438 -2.804688 2.109375 -2.890625 C 1.691406 -3.109375 1.363281 -3.351562 1.125 -3.625 C 0.882812 -3.894531 0.765625 -4.253906 0.765625 -4.703125 C 0.765625 -5.378906 1.023438 -5.90625 1.546875 -6.28125 C 2.066406 -6.65625 2.773438 -6.84375 3.671875 -6.84375 Z M 3.671875 -6.84375 "/></g></g></g></svg>