<svg xmlns="http://www.w3.org/2000/svg" xmlns:xlink="http://www.w3.org/1999/xlink" width="107" zoomAndPan="magnify" viewBox="0 0 80.25 88.499998" height="118" preserveAspectRatio="xMidYMid meet" version="1.0"><defs><g/><clipPath id="83bdc69dcc"><path d="M 0 0.160156 L 78.796875 0.160156 L 78.796875 87 L 0 87 Z M 0 0.160156 " clip-rule="nonzero"/></clipPath><clipPath id="ec8ba8199e"><path d="M 78.796875 0.160156 L 78.796875 87.109375 L 39.398438 73.523438 L 0 87.109375 L 0 0.160156 Z M 78.796875 0.160156 " clip-rule="nonzero"/></clipPath><clipPath id="2e50d01037"><path d="M 19.964844 24.203125 L 58.605469 24.203125 L 58.605469 62.839844 L 19.964844 62.839844 Z M 19.964844 24.203125 " clip-rule="nonzero"/></clipPath></defs><g clip-path="url(#83bdc69dcc)"><g clip-path="url(#ec8ba8199e)"><path fill="#ffffff" d="M 0 0.160156 L 78.796875 0.160156 L 78.796875 86.960938 L 0 86.960938 Z M 0 0.160156 " fill-opacity="1" fill-rule="nonzero"/></g></g><path fill="#690189" d="M 29.023438 38.296875 L 31.898438 38.296875 C 32.050781 38.296875 32.179688 38.347656 32.289062 38.457031 C 32.394531 38.566406 32.449219 38.695312 32.449219 38.847656 L 32.449219 54.65625 C 32.449219 54.808594 32.394531 54.9375 32.289062 55.046875 C 32.179688 55.152344 32.050781 55.207031 31.898438 55.207031 L 29.023438 55.207031 C 28.871094 55.207031 28.742188 55.152344 28.632812 55.046875 C 28.527344 54.9375 28.472656 54.808594 28.472656 54.65625 L 28.472656 38.847656 C 28.472656 38.695312 28.527344 38.566406 28.632812 38.457031 C 28.742188 38.347656 28.871094 38.296875 29.023438 38.296875 Z M 29.023438 38.296875 " fill-opacity="1" fill-rule="nonzero"/><path fill="#690189" d="M 32.777344 34.394531 C 32.773438 33.039062 31.800781 32.058594 30.460938 32.058594 C 29.121094 32.058594 28.113281 33.066406 28.113281 34.40625 C 28.113281 35.027344 28.339844 35.605469 28.753906 36.035156 C 29.175781 36.476562 29.761719 36.71875 30.394531 36.71875 C 31.101562 36.71875 31.730469 36.472656 32.167969 36.019531 C 32.574219 35.59375 32.792969 35.023438 32.777344 34.40625 C 32.777344 34.402344 32.777344 34.398438 32.777344 34.394531 Z M 32.777344 34.394531 " fill-opacity="1" fill-rule="nonzero"/><path fill="#690189" d="M 48.519531 39.40625 C 47.089844 38.128906 45.410156 37.9375 44.539062 37.9375 C 43.234375 37.9375 41.992188 38.285156 40.945312 38.945312 C 40.488281 39.230469 40.074219 39.574219 39.707031 39.96875 L 39.632812 38.8125 C 39.625 38.664062 39.566406 38.542969 39.460938 38.445312 C 39.355469 38.34375 39.226562 38.292969 39.082031 38.292969 L 36.535156 38.292969 C 36.375 38.292969 36.242188 38.351562 36.132812 38.472656 C 36.023438 38.589844 35.976562 38.726562 35.988281 38.886719 C 36.078125 40.09375 36.117188 41.359375 36.117188 43.125 L 36.117188 54.65625 C 36.117188 54.808594 36.167969 54.9375 36.277344 55.046875 C 36.386719 55.152344 36.515625 55.207031 36.667969 55.207031 L 39.542969 55.207031 C 39.695312 55.207031 39.824219 55.152344 39.929688 55.046875 C 40.039062 54.9375 40.09375 54.808594 40.09375 54.65625 L 40.09375 45.152344 C 40.09375 44.703125 40.152344 44.285156 40.253906 44 C 40.257812 43.992188 40.261719 43.980469 40.265625 43.972656 C 40.652344 42.703125 41.832031 41.421875 43.589844 41.421875 C 44.679688 41.421875 45.460938 41.796875 45.980469 42.5625 C 46.449219 43.253906 46.699219 44.285156 46.699219 45.542969 L 46.699219 54.65625 C 46.699219 54.808594 46.75 54.9375 46.859375 55.046875 C 46.96875 55.152344 47.097656 55.207031 47.25 55.207031 L 50.125 55.207031 C 50.277344 55.207031 50.40625 55.152344 50.511719 55.046875 C 50.621094 54.9375 50.675781 54.808594 50.675781 54.65625 L 50.675781 45.214844 C 50.675781 43.871094 50.472656 42.679688 50.070312 41.671875 C 49.710938 40.769531 49.1875 40.007812 48.519531 39.40625 Z M 48.519531 39.40625 " fill-opacity="1" fill-rule="nonzero"/><g clip-path="url(#2e50d01037)"><path fill="#690189" d="M 53.765625 24.203125 L 25.023438 24.203125 C 22.234375 24.203125 19.964844 26.472656 19.964844 29.261719 L 19.964844 58.003906 C 19.964844 60.792969 22.234375 63.0625 25.023438 63.0625 L 53.765625 63.0625 C 56.554688 63.0625 58.824219 60.792969 58.824219 58.003906 L 58.824219 29.261719 C 58.824219 26.472656 56.554688 24.203125 53.765625 24.203125 Z M 55.273438 29.507812 L 55.273438 57.757812 C 55.273438 57.992188 55.226562 58.214844 55.136719 58.429688 C 55.050781 58.640625 54.921875 58.832031 54.757812 58.996094 C 54.59375 59.160156 54.40625 59.285156 54.191406 59.375 C 53.976562 59.464844 53.753906 59.507812 53.519531 59.507812 L 25.269531 59.507812 C 25.035156 59.507812 24.8125 59.464844 24.597656 59.375 C 24.382812 59.285156 24.195312 59.160156 24.03125 58.996094 C 23.867188 58.832031 23.738281 58.640625 23.652344 58.429688 C 23.5625 58.214844 23.515625 57.992188 23.515625 57.757812 L 23.515625 29.507812 C 23.515625 29.273438 23.5625 29.050781 23.652344 28.835938 C 23.738281 28.621094 23.867188 28.433594 24.03125 28.269531 C 24.195312 28.105469 24.382812 27.976562 24.597656 27.886719 C 24.8125 27.800781 25.035156 27.753906 25.269531 27.753906 L 53.519531 27.753906 C 53.753906 27.753906 53.976562 27.800781 54.191406 27.886719 C 54.40625 27.976562 54.59375 28.105469 54.757812 28.269531 C 54.921875 28.433594 55.050781 28.621094 55.136719 28.835938 C 55.226562 29.050781 55.273438 29.273438 55.273438 29.507812 Z M 55.273438 29.507812 " fill-opacity="1" fill-rule="nonzero"/></g><g fill="#000000" fill-opacity="1"><g transform="translate(24.035782, 11.193463)"><g><path d="M 1.71875 -5.71875 L 1.71875 -1.140625 L 3.6875 -1.140625 L 3.6875 0 L 0.421875 0 L 0.421875 -5.71875 Z M 1.71875 -5.71875 "/></g></g></g><g fill="#000000" fill-opacity="1"><g transform="translate(27.954605, 11.193463)"><g><path d="M 0.53125 -5.546875 C 0.675781 -5.691406 0.847656 -5.765625 1.046875 -5.765625 C 1.242188 -5.765625 1.414062 -5.691406 1.5625 -5.546875 C 1.707031 -5.398438 1.78125 -5.226562 1.78125 -5.03125 C 1.78125 -4.832031 1.707031 -4.660156 1.5625 -4.515625 C 1.414062 -4.367188 1.242188 -4.296875 1.046875 -4.296875 C 0.847656 -4.296875 0.675781 -4.367188 0.53125 -4.515625 C 0.382812 -4.660156 0.3125 -4.832031 0.3125 -5.03125 C 0.3125 -5.226562 0.382812 -5.398438 0.53125 -5.546875 Z M 0.421875 -3.5625 L 0.421875 0 L 1.640625 0 L 1.640625 -3.5625 Z M 0.421875 -3.5625 "/></g></g></g><g fill="#000000" fill-opacity="1"><g transform="translate(30.049268, 11.193463)"><g><path d="M 0.421875 0 L 0.421875 -3.5625 L 1.640625 -3.5625 L 1.640625 -3.1875 L 1.65625 -3.1875 C 1.976562 -3.5 2.316406 -3.65625 2.671875 -3.65625 C 2.847656 -3.65625 3.023438 -3.632812 3.203125 -3.59375 C 3.378906 -3.550781 3.546875 -3.476562 3.703125 -3.375 C 3.859375 -3.28125 3.984375 -3.144531 4.078125 -2.96875 C 4.179688 -2.789062 4.234375 -2.582031 4.234375 -2.34375 L 4.234375 0 L 3.015625 0 L 3.015625 -2.015625 C 3.015625 -2.203125 2.953125 -2.363281 2.828125 -2.5 C 2.710938 -2.632812 2.5625 -2.703125 2.375 -2.703125 C 2.1875 -2.703125 2.015625 -2.628906 1.859375 -2.484375 C 1.710938 -2.347656 1.640625 -2.191406 1.640625 -2.015625 L 1.640625 0 Z M 0.421875 0 "/></g></g></g><g fill="#000000" fill-opacity="1"><g transform="translate(34.633945, 11.193463)"><g><path d="M 4.484375 -3.5625 L 2.78125 -1.859375 L 4.640625 0 L 3.0625 0 L 1.640625 -1.421875 L 1.640625 0 L 0.421875 0 L 0.421875 -5.96875 L 1.640625 -5.96875 L 1.640625 -2.3125 L 2.890625 -3.5625 Z M 4.484375 -3.5625 "/></g></g></g><g fill="#000000" fill-opacity="1"><g transform="translate(39.114587, 11.193463)"><g><path d="M 4.015625 -1.609375 L 1.4375 -1.609375 C 1.4375 -1.359375 1.515625 -1.171875 1.671875 -1.046875 C 1.835938 -0.929688 2.015625 -0.875 2.203125 -0.875 C 2.398438 -0.875 2.554688 -0.898438 2.671875 -0.953125 C 2.785156 -1.003906 2.921875 -1.109375 3.078125 -1.265625 L 3.96875 -0.828125 C 3.59375 -0.203125 2.972656 0.109375 2.109375 0.109375 C 1.578125 0.109375 1.117188 -0.0703125 0.734375 -0.4375 C 0.347656 -0.8125 0.15625 -1.253906 0.15625 -1.765625 C 0.15625 -2.285156 0.347656 -2.726562 0.734375 -3.09375 C 1.117188 -3.46875 1.578125 -3.65625 2.109375 -3.65625 C 2.679688 -3.65625 3.144531 -3.492188 3.5 -3.171875 C 3.851562 -2.847656 4.03125 -2.382812 4.03125 -1.78125 C 4.03125 -1.695312 4.023438 -1.640625 4.015625 -1.609375 Z M 1.46875 -2.296875 L 2.828125 -2.296875 C 2.796875 -2.472656 2.71875 -2.609375 2.59375 -2.703125 C 2.476562 -2.804688 2.332031 -2.859375 2.15625 -2.859375 C 1.945312 -2.859375 1.78125 -2.804688 1.65625 -2.703125 C 1.539062 -2.597656 1.476562 -2.460938 1.46875 -2.296875 Z M 1.46875 -2.296875 "/></g></g></g><g fill="#000000" fill-opacity="1"><g transform="translate(43.296981, 11.193463)"><g><path d="M 0.65625 -0.4375 C 0.320312 -0.800781 0.15625 -1.242188 0.15625 -1.765625 C 0.15625 -2.296875 0.320312 -2.742188 0.65625 -3.109375 C 0.988281 -3.472656 1.410156 -3.65625 1.921875 -3.65625 C 2.398438 -3.65625 2.789062 -3.507812 3.09375 -3.21875 L 3.09375 -5.96875 L 4.328125 -5.96875 L 4.328125 0 L 3.109375 0 L 3.109375 -0.40625 L 3.09375 -0.40625 C 2.789062 -0.0625 2.398438 0.109375 1.921875 0.109375 C 1.410156 0.109375 0.988281 -0.0703125 0.65625 -0.4375 Z M 1.703125 -2.375 C 1.546875 -2.21875 1.46875 -2.015625 1.46875 -1.765625 C 1.46875 -1.523438 1.539062 -1.328125 1.6875 -1.171875 C 1.84375 -1.015625 2.046875 -0.9375 2.296875 -0.9375 C 2.535156 -0.9375 2.734375 -1.015625 2.890625 -1.171875 C 3.046875 -1.335938 3.125 -1.539062 3.125 -1.78125 C 3.125 -2.019531 3.039062 -2.21875 2.875 -2.375 C 2.71875 -2.53125 2.523438 -2.609375 2.296875 -2.609375 C 2.054688 -2.609375 1.859375 -2.53125 1.703125 -2.375 Z M 1.703125 -2.375 "/></g></g></g><g fill="#000000" fill-opacity="1"><g transform="translate(48.034253, 11.193463)"><g><path d="M 1.71875 -5.71875 L 1.71875 0 L 0.421875 0 L 0.421875 -5.71875 Z M 1.71875 -5.71875 "/></g></g></g><g fill="#000000" fill-opacity="1"><g transform="translate(50.170535, 11.193463)"><g><path d="M 0.421875 0 L 0.421875 -3.5625 L 1.640625 -3.5625 L 1.640625 -3.1875 L 1.65625 -3.1875 C 1.976562 -3.5 2.316406 -3.65625 2.671875 -3.65625 C 2.847656 -3.65625 3.023438 -3.632812 3.203125 -3.59375 C 3.378906 -3.550781 3.546875 -3.476562 3.703125 -3.375 C 3.859375 -3.28125 3.984375 -3.144531 4.078125 -2.96875 C 4.179688 -2.789062 4.234375 -2.582031 4.234375 -2.34375 L 4.234375 0 L 3.015625 0 L 3.015625 -2.015625 C 3.015625 -2.203125 2.953125 -2.363281 2.828125 -2.5 C 2.710938 -2.632812 2.5625 -2.703125 2.375 -2.703125 C 2.1875 -2.703125 2.015625 -2.628906 1.859375 -2.484375 C 1.710938 -2.347656 1.640625 -2.191406 1.640625 -2.015625 L 1.640625 0 Z M 0.421875 0 "/></g></g></g></svg>